<svg xmlns="http://www.w3.org/2000/svg" viewBox="0 0 236.08 236.08"><defs><style>.cls-1{fill:#3349e5;}.cls-2{fill:#cacff7;}.cls-3{fill:#fff;}.cls-4{fill:#7d8bee;}.cls-5{fill:#354be5;}.cls-6{fill:#c7cdf7;}.cls-7{fill:#6d7dec;}.cls-8{fill:#a4aef3;}.cls-9{fill:#fcfcfe;}.cls-10{fill:#cfd4f8;}.cls-11{fill:#fbfbfe;}.cls-12{fill:#e4e6fb;}.cls-13{fill:#374de5;}.cls-14{fill:#485ce7;}.cls-15{fill:#364ce5;}</style></defs><g id="Layer_2" data-name="Layer 2"><g id="Layer_1-2" data-name="Layer 1"><rect class="cls-1" x="141.65" y="224.28" width="11.8" height="11.8"/><rect class="cls-1" x="129.84" y="224.28" width="11.8" height="11.8"/><rect class="cls-1" x="118.04" y="224.28" width="11.8" height="11.8"/><rect class="cls-1" x="106.24" y="224.28" width="11.8" height="11.8"/><rect class="cls-1" x="94.43" y="224.28" width="11.8" height="11.8"/><rect class="cls-1" x="82.63" y="224.28" width="11.8" height="11.8"/><rect class="cls-1" x="165.26" y="212.47" width="11.8" height="11.8"/><rect class="cls-1" x="153.45" y="212.47" width="11.8" height="11.8"/><rect class="cls-1" x="141.65" y="212.47" width="11.8" height="11.8"/><rect class="cls-1" x="129.84" y="212.47" width="11.8" height="11.8"/><rect class="cls-1" x="118.04" y="212.47" width="11.8" height="11.8"/><rect class="cls-1" x="106.24" y="212.47" width="11.8" height="11.8"/><rect class="cls-1" x="94.43" y="212.47" width="11.8" height="11.8"/><rect class="cls-1" x="82.63" y="212.47" width="11.8" height="11.8"/><rect class="cls-1" x="70.82" y="212.47" width="11.8" height="11.8"/><rect class="cls-1" x="59.02" y="212.47" width="11.8" height="11.8"/><rect class="cls-1" x="188.86" y="200.67" width="11.8" height="11.8"/><rect class="cls-1" x="177.06" y="200.67" width="11.8" height="11.8"/><rect class="cls-1" x="165.26" y="200.67" width="11.8" height="11.8"/><rect class="cls-1" x="153.45" y="200.67" width="11.8" height="11.8"/><rect class="cls-1" x="141.65" y="200.67" width="11.8" height="11.8"/><rect class="cls-1" x="129.84" y="200.67" width="11.8" height="11.8"/><rect class="cls-2" x="118.04" y="200.67" width="11.8" height="11.8"/><rect class="cls-3" x="106.24" y="200.67" width="11.8" height="11.8"/><rect class="cls-1" x="94.43" y="200.67" width="11.8" height="11.8"/><rect class="cls-1" x="82.63" y="200.67" width="11.8" height="11.8"/><rect class="cls-1" x="70.82" y="200.67" width="11.8" height="11.8"/><rect class="cls-1" x="59.02" y="200.67" width="11.8" height="11.8"/><rect class="cls-1" x="47.22" y="200.67" width="11.8" height="11.8"/><rect class="cls-1" x="35.41" y="200.67" width="11.8" height="11.8"/><rect class="cls-1" x="200.67" y="188.86" width="11.8" height="11.8"/><rect class="cls-1" x="188.86" y="188.86" width="11.8" height="11.8"/><rect class="cls-1" x="177.06" y="188.86" width="11.8" height="11.8"/><rect class="cls-1" x="165.26" y="188.86" width="11.8" height="11.8"/><rect class="cls-1" x="153.45" y="188.86" width="11.8" height="11.8"/><rect class="cls-1" x="141.65" y="188.86" width="11.8" height="11.8"/><rect class="cls-3" x="129.84" y="188.86" width="11.8" height="11.8"/><rect class="cls-3" x="118.04" y="188.86" width="11.8" height="11.8"/><rect class="cls-4" x="106.24" y="188.86" width="11.8" height="11.8"/><rect class="cls-3" x="94.43" y="188.86" width="11.8" height="11.8"/><rect class="cls-3" x="82.63" y="188.86" width="11.8" height="11.8"/><rect class="cls-1" x="70.82" y="188.86" width="11.8" height="11.8"/><rect class="cls-1" x="59.02" y="188.86" width="11.8" height="11.8"/><rect class="cls-1" x="47.22" y="188.86" width="11.8" height="11.8"/><rect class="cls-1" x="35.41" y="188.86" width="11.8" height="11.8"/><rect class="cls-5" x="23.61" y="188.86" width="11.8" height="11.8"/><rect class="cls-1" x="200.67" y="177.06" width="11.8" height="11.8"/><rect class="cls-1" x="188.86" y="177.06" width="11.8" height="11.8"/><rect class="cls-1" x="177.06" y="177.06" width="11.8" height="11.8"/><rect class="cls-1" x="165.26" y="177.06" width="11.8" height="11.8"/><rect class="cls-1" x="153.45" y="177.06" width="11.8" height="11.8"/><rect class="cls-3" x="141.65" y="177.06" width="11.8" height="11.8"/><rect class="cls-1" x="129.84" y="177.06" width="11.8" height="11.8"/><rect class="cls-1" x="118.04" y="177.06" width="11.8" height="11.8"/><rect class="cls-1" x="106.24" y="177.06" width="11.8" height="11.8"/><rect class="cls-1" x="94.43" y="177.06" width="11.8" height="11.8"/><rect class="cls-3" x="82.63" y="177.06" width="11.8" height="11.8"/><rect class="cls-6" x="70.82" y="177.06" width="11.8" height="11.8"/><rect class="cls-1" x="59.02" y="177.06" width="11.8" height="11.8"/><rect class="cls-1" x="47.22" y="177.06" width="11.8" height="11.8"/><rect class="cls-1" x="35.41" y="177.06" width="11.8" height="11.8"/><rect class="cls-1" x="23.61" y="177.06" width="11.8" height="11.8"/><rect class="cls-1" x="212.47" y="165.26" width="11.8" height="11.8"/><rect class="cls-1" x="200.67" y="165.26" width="11.8" height="11.8"/><rect class="cls-1" x="188.86" y="165.26" width="11.8" height="11.8"/><rect class="cls-1" x="177.06" y="165.26" width="11.8" height="11.8"/><rect class="cls-1" x="165.26" y="165.26" width="11.8" height="11.8"/><rect class="cls-1" x="153.45" y="165.26" width="11.8" height="11.8"/><rect class="cls-3" x="141.65" y="165.26" width="11.8" height="11.8"/><rect class="cls-1" x="129.84" y="165.26" width="11.8" height="11.8"/><rect class="cls-1" x="118.04" y="165.26" width="11.8" height="11.8"/><rect class="cls-3" x="106.24" y="165.26" width="11.8" height="11.8"/><rect class="cls-1" x="94.43" y="165.26" width="11.8" height="11.8"/><rect class="cls-1" x="82.63" y="165.26" width="11.8" height="11.8"/><rect class="cls-3" x="70.82" y="165.26" width="11.8" height="11.8"/><rect class="cls-1" x="59.02" y="165.26" width="11.8" height="11.8"/><rect class="cls-1" x="47.22" y="165.26" width="11.8" height="11.8"/><rect class="cls-1" x="35.41" y="165.26" width="11.8" height="11.8"/><rect class="cls-1" x="23.61" y="165.26" width="11.8" height="11.8"/><rect class="cls-1" x="11.8" y="165.26" width="11.8" height="11.8"/><rect class="cls-1" x="212.47" y="153.45" width="11.8" height="11.8"/><rect class="cls-1" x="200.67" y="153.45" width="11.8" height="11.8"/><rect class="cls-1" x="188.86" y="153.45" width="11.8" height="11.8"/><rect class="cls-1" x="177.06" y="153.45" width="11.8" height="11.8"/><rect class="cls-1" x="165.26" y="153.45" width="11.8" height="11.8"/><rect class="cls-1" x="153.45" y="153.45" width="11.8" height="11.8"/><rect class="cls-3" x="141.65" y="153.45" width="11.8" height="11.8"/><rect class="cls-1" x="129.84" y="153.45" width="11.8" height="11.8"/><rect class="cls-1" x="118.04" y="153.45" width="11.8" height="11.8"/><rect class="cls-3" x="106.24" y="153.45" width="11.8" height="11.8"/><rect class="cls-1" x="94.43" y="153.45" width="11.8" height="11.8"/><rect class="cls-1" x="82.63" y="153.45" width="11.8" height="11.8"/><rect class="cls-3" x="70.82" y="153.45" width="11.8" height="11.8"/><rect class="cls-1" x="59.02" y="153.45" width="11.8" height="11.8"/><rect class="cls-1" x="47.22" y="153.45" width="11.8" height="11.8"/><rect class="cls-1" x="35.41" y="153.45" width="11.8" height="11.8"/><rect class="cls-1" x="23.61" y="153.45" width="11.8" height="11.8"/><rect class="cls-1" x="11.8" y="153.45" width="11.8" height="11.8"/><rect class="cls-1" x="224.28" y="141.65" width="11.8" height="11.8"/><rect class="cls-1" x="212.47" y="141.65" width="11.8" height="11.8"/><rect class="cls-1" x="200.67" y="141.65" width="11.8" height="11.8"/><rect class="cls-1" x="188.86" y="141.65" width="11.8" height="11.8"/><rect class="cls-1" x="177.06" y="141.65" width="11.8" height="11.8"/><rect class="cls-1" x="165.26" y="141.65" width="11.8" height="11.8"/><rect class="cls-1" x="153.45" y="141.65" width="11.8" height="11.8"/><rect class="cls-3" x="141.65" y="141.65" width="11.8" height="11.8"/><rect class="cls-1" x="129.84" y="141.65" width="11.8" height="11.8"/><rect class="cls-1" x="118.04" y="141.65" width="11.8" height="11.8"/><rect class="cls-3" x="106.24" y="141.65" width="11.8" height="11.8"/><rect class="cls-1" x="94.43" y="141.65" width="11.8" height="11.8"/><rect class="cls-3" x="82.63" y="141.65" width="11.8" height="11.8"/><rect class="cls-7" x="70.82" y="141.65" width="11.8" height="11.8"/><rect class="cls-8" x="59.02" y="141.65" width="11.8" height="11.8"/><rect class="cls-1" x="47.22" y="141.65" width="11.8" height="11.8"/><rect class="cls-1" x="35.41" y="141.65" width="11.8" height="11.8"/><rect class="cls-1" x="23.61" y="141.65" width="11.8" height="11.8"/><rect class="cls-1" x="11.8" y="141.65" width="11.8" height="11.8"/><rect class="cls-1" y="141.65" width="11.8" height="11.8"/><rect class="cls-1" x="224.28" y="129.84" width="11.8" height="11.8"/><rect class="cls-1" x="212.47" y="129.84" width="11.8" height="11.8"/><rect class="cls-1" x="200.67" y="129.84" width="11.8" height="11.8"/><rect class="cls-1" x="188.86" y="129.84" width="11.8" height="11.8"/><rect class="cls-1" x="177.06" y="129.84" width="11.8" height="11.8"/><rect class="cls-1" x="165.26" y="129.84" width="11.8" height="11.8"/><rect class="cls-1" x="153.45" y="129.84" width="11.8" height="11.8"/><rect class="cls-9" x="141.65" y="129.84" width="11.8" height="11.8"/><rect class="cls-3" x="129.84" y="129.84" width="11.8" height="11.8"/><rect class="cls-1" x="118.04" y="129.84" width="11.8" height="11.8"/><rect class="cls-3" x="106.24" y="129.84" width="11.8" height="11.8"/><rect class="cls-1" x="94.43" y="129.84" width="11.8" height="11.8"/><rect class="cls-3" x="82.63" y="129.84" width="11.8" height="11.8"/><rect class="cls-3" x="70.82" y="129.84" width="11.8" height="11.8"/><rect class="cls-3" x="59.02" y="129.84" width="11.8" height="11.8"/><rect class="cls-1" x="47.22" y="129.84" width="11.8" height="11.8"/><rect class="cls-1" x="35.41" y="129.84" width="11.8" height="11.8"/><rect class="cls-1" x="23.61" y="129.84" width="11.8" height="11.8"/><rect class="cls-1" x="11.8" y="129.84" width="11.8" height="11.8"/><rect class="cls-1" y="129.84" width="11.8" height="11.8"/><rect class="cls-1" x="224.28" y="118.04" width="11.8" height="11.8"/><rect class="cls-1" x="212.47" y="118.04" width="11.8" height="11.8"/><rect class="cls-1" x="200.67" y="118.04" width="11.8" height="11.8"/><rect class="cls-1" x="188.86" y="118.04" width="11.8" height="11.8"/><rect class="cls-1" x="177.06" y="118.04" width="11.8" height="11.8"/><rect class="cls-1" x="165.26" y="118.04" width="11.8" height="11.8"/><rect class="cls-1" x="153.45" y="118.04" width="11.8" height="11.8"/><rect class="cls-1" x="141.65" y="118.04" width="11.8" height="11.8"/><rect class="cls-1" x="129.84" y="118.04" width="11.8" height="11.8"/><rect class="cls-1" x="118.04" y="118.04" width="11.8" height="11.8"/><rect class="cls-3" x="106.24" y="118.04" width="11.8" height="11.8"/><rect class="cls-1" x="94.43" y="118.04" width="11.8" height="11.8"/><rect class="cls-1" x="82.63" y="118.04" width="11.8" height="11.8"/><rect class="cls-1" x="70.82" y="118.04" width="11.8" height="11.8"/><rect class="cls-1" x="59.02" y="118.04" width="11.8" height="11.8"/><rect class="cls-1" x="47.22" y="118.04" width="11.8" height="11.8"/><rect class="cls-1" x="35.41" y="118.04" width="11.8" height="11.8"/><rect class="cls-1" x="23.61" y="118.04" width="11.8" height="11.8"/><rect class="cls-1" x="11.8" y="118.04" width="11.8" height="11.8"/><rect class="cls-1" y="118.04" width="11.8" height="11.8"/><rect class="cls-1" x="224.28" y="106.24" width="11.8" height="11.8"/><rect class="cls-1" x="212.47" y="106.24" width="11.8" height="11.8"/><rect class="cls-1" x="200.67" y="106.24" width="11.8" height="11.8"/><rect class="cls-1" x="188.86" y="106.24" width="11.8" height="11.8"/><rect class="cls-1" x="177.06" y="106.24" width="11.8" height="11.8"/><rect class="cls-1" x="165.26" y="106.24" width="11.8" height="11.8"/><rect class="cls-1" x="153.45" y="106.24" width="11.8" height="11.8"/><rect class="cls-1" x="141.65" y="106.24" width="11.8" height="11.8"/><rect class="cls-1" x="129.84" y="106.24" width="11.8" height="11.8"/><rect class="cls-1" x="118.04" y="106.24" width="11.8" height="11.8"/><rect class="cls-3" x="106.24" y="106.24" width="11.8" height="11.8"/><rect class="cls-3" x="94.43" y="106.24" width="11.8" height="11.8"/><rect class="cls-1" x="82.63" y="106.24" width="11.8" height="11.8"/><rect class="cls-1" x="70.82" y="106.24" width="11.8" height="11.8"/><rect class="cls-1" x="59.02" y="106.24" width="11.8" height="11.8"/><rect class="cls-1" x="47.22" y="106.24" width="11.8" height="11.8"/><rect class="cls-1" x="35.41" y="106.24" width="11.8" height="11.8"/><rect class="cls-1" x="23.61" y="106.24" width="11.8" height="11.8"/><rect class="cls-1" x="11.8" y="106.24" width="11.8" height="11.8"/><rect class="cls-1" y="106.24" width="11.8" height="11.8"/><rect class="cls-1" x="224.28" y="94.43" width="11.8" height="11.8"/><rect class="cls-1" x="212.47" y="94.43" width="11.8" height="11.8"/><rect class="cls-1" x="200.67" y="94.43" width="11.8" height="11.8"/><rect class="cls-1" x="188.86" y="94.43" width="11.8" height="11.8"/><rect class="cls-1" x="177.06" y="94.43" width="11.8" height="11.8"/><rect class="cls-1" x="165.26" y="94.43" width="11.8" height="11.8"/><rect class="cls-3" x="153.45" y="94.43" width="11.8" height="11.8"/><rect class="cls-3" x="141.65" y="94.43" width="11.8" height="11.8"/><rect class="cls-3" x="129.84" y="94.43" width="11.8" height="11.8"/><rect class="cls-1" x="118.04" y="94.43" width="11.8" height="11.8"/><rect class="cls-3" x="106.24" y="94.43" width="11.8" height="11.8"/><rect class="cls-10" x="94.43" y="94.43" width="11.8" height="11.8"/><rect class="cls-3" x="82.63" y="94.43" width="11.8" height="11.8"/><rect class="cls-1" x="70.82" y="94.43" width="11.8" height="11.8"/><rect class="cls-1" x="59.02" y="94.43" width="11.8" height="11.8"/><rect class="cls-1" x="47.22" y="94.43" width="11.8" height="11.8"/><rect class="cls-1" x="35.41" y="94.43" width="11.8" height="11.8"/><rect class="cls-1" x="23.61" y="94.43" width="11.8" height="11.8"/><rect class="cls-1" x="11.8" y="94.43" width="11.8" height="11.8"/><rect class="cls-1" y="94.43" width="11.8" height="11.8"/><rect class="cls-1" x="224.28" y="82.63" width="11.8" height="11.8"/><rect class="cls-1" x="212.47" y="82.63" width="11.8" height="11.8"/><rect class="cls-1" x="200.67" y="82.63" width="11.8" height="11.8"/><rect class="cls-1" x="188.86" y="82.63" width="11.8" height="11.8"/><rect class="cls-1" x="177.06" y="82.63" width="11.8" height="11.8"/><rect class="cls-3" x="165.26" y="82.63" width="11.8" height="11.8"/><rect class="cls-1" x="153.45" y="82.63" width="11.8" height="11.8"/><rect class="cls-3" x="141.65" y="82.63" width="11.8" height="11.8"/><rect class="cls-3" x="129.84" y="82.63" width="11.8" height="11.8"/><rect class="cls-1" x="118.04" y="82.63" width="11.8" height="11.8"/><rect class="cls-3" x="106.24" y="82.63" width="11.8" height="11.8"/><rect class="cls-1" x="94.43" y="82.63" width="11.8" height="11.8"/><rect class="cls-11" x="82.63" y="82.63" width="11.8" height="11.8"/><rect class="cls-3" x="70.82" y="82.63" width="11.8" height="11.8"/><rect class="cls-1" x="59.02" y="82.63" width="11.8" height="11.8"/><rect class="cls-1" x="47.22" y="82.63" width="11.8" height="11.8"/><rect class="cls-1" x="35.41" y="82.63" width="11.8" height="11.8"/><rect class="cls-1" x="23.61" y="82.63" width="11.8" height="11.8"/><rect class="cls-1" x="11.8" y="82.63" width="11.8" height="11.8"/><rect class="cls-1" y="82.63" width="11.8" height="11.8"/><rect class="cls-1" x="212.47" y="70.82" width="11.8" height="11.8"/><rect class="cls-1" x="200.67" y="70.82" width="11.8" height="11.8"/><rect class="cls-1" x="188.86" y="70.82" width="11.8" height="11.8"/><rect class="cls-1" x="177.06" y="70.82" width="11.8" height="11.8"/><rect class="cls-1" x="165.26" y="70.82" width="11.8" height="11.8"/><rect class="cls-1" x="153.45" y="70.82" width="11.8" height="11.8"/><rect class="cls-12" x="141.65" y="70.82" width="11.8" height="11.8"/><rect class="cls-3" x="129.84" y="70.82" width="11.8" height="11.8"/><rect class="cls-1" x="118.04" y="70.82" width="11.8" height="11.8"/><rect class="cls-3" x="106.24" y="70.82" width="11.8" height="11.8"/><rect class="cls-1" x="94.43" y="70.82" width="11.8" height="11.8"/><rect class="cls-1" x="82.63" y="70.82" width="11.8" height="11.8"/><rect class="cls-3" x="70.82" y="70.82" width="11.8" height="11.8"/><rect class="cls-1" x="59.02" y="70.82" width="11.8" height="11.8"/><rect class="cls-1" x="47.22" y="70.82" width="11.8" height="11.8"/><rect class="cls-1" x="35.41" y="70.82" width="11.8" height="11.8"/><rect class="cls-1" x="23.61" y="70.82" width="11.8" height="11.8"/><rect class="cls-1" x="11.8" y="70.82" width="11.8" height="11.8"/><rect class="cls-1" x="212.47" y="59.02" width="11.8" height="11.8"/><rect class="cls-1" x="200.67" y="59.02" width="11.8" height="11.8"/><rect class="cls-1" x="188.86" y="59.02" width="11.8" height="11.8"/><rect class="cls-1" x="177.06" y="59.02" width="11.8" height="11.8"/><rect class="cls-1" x="165.26" y="59.02" width="11.8" height="11.8"/><rect class="cls-1" x="153.45" y="59.02" width="11.8" height="11.8"/><rect class="cls-3" x="141.65" y="59.02" width="11.8" height="11.8"/><rect class="cls-1" x="129.84" y="59.02" width="11.8" height="11.8"/><rect class="cls-1" x="118.04" y="59.02" width="11.8" height="11.8"/><rect class="cls-3" x="106.24" y="59.02" width="11.8" height="11.8"/><rect class="cls-1" x="94.43" y="59.02" width="11.8" height="11.8"/><rect class="cls-1" x="82.63" y="59.02" width="11.8" height="11.8"/><rect class="cls-3" x="70.82" y="59.02" width="11.8" height="11.8"/><rect class="cls-1" x="59.02" y="59.02" width="11.8" height="11.8"/><rect class="cls-1" x="47.22" y="59.02" width="11.8" height="11.8"/><rect class="cls-1" x="35.41" y="59.02" width="11.8" height="11.8"/><rect class="cls-1" x="23.61" y="59.02" width="11.8" height="11.8"/><rect class="cls-1" x="11.8" y="59.02" width="11.8" height="11.8"/><rect class="cls-1" x="200.67" y="47.22" width="11.8" height="11.8"/><rect class="cls-1" x="188.86" y="47.22" width="11.8" height="11.8"/><rect class="cls-1" x="177.06" y="47.22" width="11.8" height="11.8"/><rect class="cls-1" x="165.26" y="47.22" width="11.8" height="11.8"/><rect class="cls-1" x="153.45" y="47.22" width="11.8" height="11.8"/><rect class="cls-3" x="141.65" y="47.22" width="11.8" height="11.8"/><rect class="cls-1" x="129.84" y="47.22" width="11.8" height="11.8"/><rect class="cls-1" x="118.04" y="47.22" width="11.8" height="11.8"/><rect class="cls-1" x="106.24" y="47.22" width="11.8" height="11.8"/><rect class="cls-1" x="94.43" y="47.22" width="11.8" height="11.8"/><rect class="cls-3" x="82.63" y="47.22" width="11.8" height="11.8"/><rect class="cls-13" x="70.82" y="47.22" width="11.8" height="11.8"/><rect class="cls-1" x="59.02" y="47.22" width="11.8" height="11.8"/><rect class="cls-1" x="47.22" y="47.22" width="11.8" height="11.8"/><rect class="cls-1" x="35.41" y="47.22" width="11.8" height="11.8"/><rect class="cls-1" x="23.61" y="47.22" width="11.8" height="11.8"/><rect class="cls-1" x="200.67" y="35.41" width="11.8" height="11.8"/><rect class="cls-1" x="188.86" y="35.41" width="11.8" height="11.8"/><rect class="cls-1" x="177.06" y="35.41" width="11.8" height="11.8"/><rect class="cls-1" x="165.26" y="35.41" width="11.8" height="11.8"/><rect class="cls-1" x="153.45" y="35.41" width="11.8" height="11.8"/><rect class="cls-1" x="141.65" y="35.41" width="11.8" height="11.8"/><rect class="cls-3" x="129.84" y="35.41" width="11.8" height="11.8"/><rect class="cls-3" x="118.04" y="35.41" width="11.8" height="11.8"/><rect class="cls-3" x="106.24" y="35.41" width="11.8" height="11.8"/><rect class="cls-3" x="94.43" y="35.41" width="11.8" height="11.8"/><rect class="cls-3" x="82.63" y="35.41" width="11.8" height="11.8"/><rect class="cls-1" x="70.82" y="35.41" width="11.8" height="11.8"/><rect class="cls-1" x="59.02" y="35.41" width="11.8" height="11.8"/><rect class="cls-1" x="47.22" y="35.41" width="11.8" height="11.8"/><rect class="cls-1" x="35.41" y="35.41" width="11.8" height="11.8"/><rect class="cls-14" x="23.61" y="35.41" width="11.8" height="11.8"/><rect class="cls-15" x="188.86" y="23.61" width="11.8" height="11.8"/><rect class="cls-1" x="177.06" y="23.61" width="11.8" height="11.8"/><rect class="cls-1" x="165.26" y="23.61" width="11.8" height="11.8"/><rect class="cls-1" x="153.45" y="23.61" width="11.8" height="11.8"/><rect class="cls-1" x="141.65" y="23.61" width="11.8" height="11.8"/><rect class="cls-1" x="129.84" y="23.61" width="11.8" height="11.8"/><rect class="cls-1" x="118.04" y="23.61" width="11.8" height="11.8"/><rect class="cls-1" x="106.24" y="23.61" width="11.8" height="11.8"/><rect class="cls-1" x="94.43" y="23.61" width="11.8" height="11.8"/><rect class="cls-1" x="82.63" y="23.61" width="11.8" height="11.8"/><rect class="cls-1" x="70.82" y="23.61" width="11.8" height="11.8"/><rect class="cls-1" x="59.02" y="23.61" width="11.8" height="11.8"/><rect class="cls-1" x="47.22" y="23.61" width="11.8" height="11.8"/><rect class="cls-14" x="35.41" y="23.61" width="11.8" height="11.8"/><rect class="cls-1" x="165.26" y="11.8" width="11.8" height="11.8"/><rect class="cls-1" x="153.45" y="11.8" width="11.8" height="11.8"/><rect class="cls-1" x="141.65" y="11.8" width="11.8" height="11.8"/><rect class="cls-1" x="129.84" y="11.8" width="11.8" height="11.8"/><rect class="cls-1" x="118.04" y="11.8" width="11.8" height="11.8"/><rect class="cls-1" x="106.24" y="11.8" width="11.8" height="11.8"/><rect class="cls-1" x="94.43" y="11.8" width="11.8" height="11.8"/><rect class="cls-1" x="82.63" y="11.8" width="11.8" height="11.8"/><rect class="cls-1" x="70.82" y="11.8" width="11.8" height="11.8"/><rect class="cls-1" x="59.02" y="11.8" width="11.8" height="11.8"/><rect class="cls-1" x="141.65" width="11.8" height="11.8"/><rect class="cls-1" x="129.84" width="11.8" height="11.8"/><rect class="cls-1" x="118.04" width="11.8" height="11.8"/><rect class="cls-1" x="106.24" width="11.8" height="11.8"/><rect class="cls-1" x="94.43" width="11.8" height="11.8"/><rect class="cls-1" x="82.63" width="11.8" height="11.8"/></g></g></svg>